<svg id="_x33_0" enable-background="new 0 0 64 64" height="512" viewBox="0 0 64 64" width="512" xmlns="http://www.w3.org/2000/svg"><path d="m55 2v4h-10.4l-1.6-4z" fill="#aab2bd"/><path d="m43 2 1.6 4h-10.6-10v-4z" fill="#aab2bd"/><path d="m27 18-1 1-2-12v-1h10v7.69l-3-1.69z" fill="#838f9b"/><path d="m55 7-1 19h-2-4l-.79-5.03-2.21-13.97-.4-1h10.4z" fill="#838f9b"/><path d="m34 13.69 3.27 1.84-.27.47-3.71 5.56-6.29-3.56 4-6z" fill="#aab2bd"/><path d="m52 26-2 5-8.96-5.06 3.96-5.94.05-.09 1.95 1.09.21-.03.79 5.03z" fill="#aab2bd"/><path d="m41.16 17.72 3.89 2.19-.05.09-3.96 5.94-3.87-2.19 3.83-5.75z" fill="#838f9b"/><path d="m37.27 15.53 3.89 2.19-.16.28-3.83 5.75-3.88-2.19 3.71-5.56z" fill="#838f9b"/><path d="m21.997 19.943c-4.514 6.444-3.928 15.445 1.757 21.225 6.338 6.444 16.614 6.444 22.952 0 1.413-1.437 2.511-3.073 3.294-4.819z" fill="#beadf2"/><path d="m44.75 33-1.75-1-12-6.86-5.88-3.36-1.18-.67.06-.11 2-2 1-1 6.29 3.56 3.88 2.19 3.87 2.19 8.96 5.06-1 4-.18.32z" fill="#ccd1d9"/><g fill="#ffc729"><path d="m12 29-5.26 3.68-3.74-4.68 5.8-2.2z"/><path d="m14 43-2.79 6.05-8.21-2.05 4.77-7.63z"/><path d="m22 52 3.92 5.04-6.92 2.96-2.17-6.52z"/><path d="m41.13 54.75-3.13 6.25-4.76-4.76 3.76-4.24z"/><path d="m55.03 46.07 3.97 8.93-10-1v-7z"/></g><path d="m35 47c6.953 0 13.354-4.27 15.927-10.625l.328-.81-1.195-.683.892-3.569 1.725-4.313h2.272l1.051-20v-6h-33v6l1.93 11.656-1.188 1.188-1.988-1.136-.534.666c-2.167 2.703-3.22 6.179-3.22 10.626 0 9.374 7.626 17 17 17zm-15-17c0-.697.037-1.358.093-2h3.907v4h-3.851c-.088-.656-.149-1.32-.149-2zm10-4.277v.277h-4v-2.562zm8 12.277v-4h4v4zm4 2v3.285c-1.253.646-2.599 1.124-4 1.408v-4.693zm-16 0h4v4.125c-1.449-.515-2.794-1.244-4-2.153zm0-2v-4h4v4zm6-4h4v4h-4zm6-2v-1.705l2.984 1.705zm-2 0h-4v-4h1.984l2.016 1.152zm-6-4v4h-4v-4zm-6 6v4h-1.667c-.777-1.226-1.378-2.569-1.775-4zm0 6v.164c-.05-.054-.1-.109-.149-.164zm8 4.698v-4.698h4v4.964c-.332.022-.665.036-1 .036-1.027 0-2.03-.105-3-.302zm12-2.638v-2.06h2.303c-.696.762-1.468 1.454-2.303 2.06zm3.834-4.06h-3.834v-4h.484l4.238 2.422c-.262.548-.563 1.071-.888 1.578zm1.662-8.434-7.025-3.97 2.907-4.361.94.529.828 5.236h3.377zm-22.859-12.824-1.623-9.742h7.986v4.977l-2.317-1.304zm17.392-9.475 1.892 11.98-10.921-6.144v-6.103h8.923zm-12.712 6.059 4.555 2.562-2.895 4.342-4.549-2.571zm6.304 3.546 2.131 1.198-2.9 4.35-2.128-1.203zm3.879 2.181 2.131 1.198-2.905 4.358-2.128-1.203zm7.354 5.947-2.842-18h7.986l-.947 18zm5.146-22v2h-8.738l-.786-2zm-11.677 0 .8 2h-18.123v-2zm-15.153 16.244 21.676 12.252-.589 2.356-22.715-12.98zm-4.896 2.065 1.726.986v3.705h-3.626c.363-1.799.989-3.357 1.9-4.691z"/><path d="m50 21h2v2h-2z"/><path d="m56.477 46.862 7.357-1.132-8.045-10.344-1.578 1.229 5.955 7.656-12.166 1.871v11.99l-11.169-7.446-7.779 8.752-6.677-8.585-12.554 3.586 5.468-11.846-11.436-6.67 9.696-6.788-7.567-7.567 11.242-2.594-.449-1.949-14.757 3.407 4.917 4.917-5.558 2.223 3.919 4.899-5.15 3.604 6.23 3.635-4.954 7.926 8.37 2.092-3.614 7.832 10.002-2.858 2.214 6.645 7.206-3.089 3.348 4.304 4.33-4.871 4.997 4.997 3.239-6.478 8.486 5.658v-6.763l10.612 1.061zm-51.854-18.434 3.748-1.499-.095-.239 2.175 2.175-3.511 2.458zm-.046 17.935 3.528-5.644 4.606 2.687-2.065 4.475zm15.028 12.289-1.501-4.499 3.52-1.006 2.707 3.48zm18.121.66-3.117-3.117 2.56-2.88 2.667 1.778zm12.274-11.454 4.429-.682 2.959 6.657-7.388-.738z"/></svg>