<svg id="Capa_1" enable-background="new 0 0 512.004 512.004" height="512" viewBox="0 0 512.004 512.004" width="512" xmlns="http://www.w3.org/2000/svg"><g><g><g><path d="m320.852 313.13c0 41.544-25.738 77.068-62.135 91.502-1.744.691-3.687.691-5.43 0-36.397-14.433-62.135-49.958-62.135-91.502 0-42.562 27.025-78.811 64.85-92.532 37.826 13.721 64.85 49.97 64.85 92.532z" fill="#23f1a8"/><path d="m320.852 313.132c0 41.54-25.74 77.067-62.135 91.503-1.744.686-3.685.686-5.43 0-4.627-1.839-9.086-4.014-13.341-6.503 29.185-17.07 48.795-48.744 48.795-85 0-36.257-19.61-67.93-48.795-84.993 5.079-2.978 10.451-5.503 16.056-7.539 37.826 13.72 64.85 49.97 64.85 92.532z" fill="#26d192"/><path d="m276.897 235.186h-41.79c-4.031 0-7.298-3.267-7.298-7.298v-24.495c0-8.061 6.535-14.596 14.596-14.596h27.194c8.061 0 14.596 6.535 14.596 14.596v24.495c0 4.031-3.267 7.298-7.298 7.298z" fill="#1475cb"/><path d="m284.192 203.39v24.5c0 4.03-3.26 7.3-7.29 7.3h-28.2c4.03 0 7.3-3.27 7.3-7.3v-24.5c0-7.89-6.26-14.32-14.1-14.58.16-.01.33-.01.5-.01h27.2c8.06 0 14.59 6.53 14.59 14.59z" fill="#0857a0"/></g><g><g><path d="m495.519 290.865c0 41.544-25.738 77.068-62.135 91.502-1.744.691-3.687.691-5.43 0-36.397-14.433-62.135-49.958-62.135-91.502 0-42.562 27.025-78.811 64.85-92.532 37.825 13.721 64.85 49.97 64.85 92.532z" fill="#fcc16d"/><path d="m495.519 290.867c0 41.54-25.74 77.067-62.135 91.503-1.744.686-3.686.686-5.43 0-4.627-1.839-9.086-4.014-13.341-6.503 29.185-17.07 48.795-48.744 48.795-85 0-36.257-19.61-67.93-48.795-84.993 5.079-2.978 10.451-5.503 16.056-7.539 37.825 13.72 64.85 49.97 64.85 92.532z" fill="#fcb44d"/><path d="m451.564 212.921h-41.79c-4.031 0-7.298-3.267-7.298-7.298v-24.495c0-8.061 6.535-14.596 14.596-14.596h27.194c8.061 0 14.596 6.535 14.596 14.596v24.495c0 4.031-3.268 7.298-7.298 7.298z" fill="#1475cb"/><path d="m458.859 181.125v24.5c0 4.03-3.26 7.3-7.29 7.3h-28.2c4.03 0 7.3-3.27 7.3-7.3v-24.5c0-7.89-6.26-14.32-14.1-14.58.16-.01.33-.01.5-.01h27.2c8.06 0 14.59 6.53 14.59 14.59z" fill="#0857a0"/></g><g><path d="m146.186 290.865c0 41.544-25.738 77.068-62.135 91.502-1.744.691-3.687.691-5.43 0-36.397-14.433-62.135-49.958-62.135-91.502 0-42.562 27.025-78.811 64.85-92.532 37.825 13.721 64.85 49.97 64.85 92.532z" fill="#fb6a3b"/><path d="m146.186 290.867c0 41.54-25.74 77.067-62.135 91.503-1.744.686-3.685.686-5.43 0-4.627-1.839-9.086-4.014-13.341-6.503 29.185-17.07 48.795-48.744 48.795-85 0-36.257-19.61-67.93-48.795-84.993 5.079-2.978 10.451-5.503 16.056-7.539 37.825 13.72 64.85 49.97 64.85 92.532z" fill="#fb5532"/><path d="m102.23 212.921h-41.79c-4.031 0-7.298-3.267-7.298-7.298v-24.495c0-8.061 6.535-14.596 14.596-14.596h27.194c8.061 0 14.596 6.535 14.596 14.596v24.495c0 4.031-3.267 7.298-7.298 7.298z" fill="#1475cb"/><path d="m109.525 181.125v24.5c0 4.03-3.26 7.3-7.29 7.3h-28.2c4.03 0 7.3-3.27 7.3-7.3v-24.5c0-7.89-6.26-14.32-14.1-14.58.16-.01.33-.01.5-.01h27.2c8.06 0 14.59 6.53 14.59 14.59z" fill="#0857a0"/></g></g></g><path d="m511.502 104.16c-1.488-3.865-5.824-5.797-9.693-4.307-16.111 6.199-32.404 11.76-48.854 16.7-4.224-8.001-12.626-13.47-22.286-13.47-13.888 0-25.187 11.298-25.187 25.186 0 .222.015.458.027.69-40.912 9.127-82.662 14.463-124.962 15.95-2.564-11.187-12.592-19.561-24.545-19.561s-21.981 8.373-24.545 19.561c-42.3-1.487-84.05-6.822-124.961-15.95.011-.232.027-.468.027-.69 0-13.888-11.299-25.186-25.187-25.186-9.66 0-18.062 5.469-22.286 13.47-16.45-4.94-32.743-10.501-48.855-16.7-3.867-1.489-8.206.439-9.693 4.307-1.488 3.866.44 8.206 4.306 9.693 17.031 6.553 34.259 12.412 51.659 17.589 1.358 7.643 6.894 18.821 11.766 27.59h-.496c-12.184 0-22.096 9.912-22.096 22.096v24.495c0 1.578.254 3.096.713 4.523-18.877 16.027-31.511 37.98-35.773 62.405-.712 4.08 2.019 7.966 6.099 8.678.436.076.87.112 1.298.112 3.577 0 6.744-2.567 7.379-6.212 3.784-21.682 15.273-41.09 32.427-54.959.863.157 1.747.252 2.655.252h41.79c.92 0 1.817-.096 2.692-.257 21.491 17.363 33.764 42.983 33.764 70.701 0 37.522-22.531 70.702-57.301 84.53-29.555-11.721-51.089-38.456-56.198-69.773-.667-4.087-4.525-6.855-8.61-6.194-4.088.667-6.862 4.522-6.195 8.61 5.955 36.494 31.042 67.646 65.474 81.301 1.767.701 3.623 1.051 5.479 1.051s3.713-.35 5.48-1.051c19.502-7.733 36.142-20.974 48.12-38.289 12.267-17.732 18.75-38.544 18.75-60.185 0-31.437-13.552-60.55-37.366-80.73.457-1.424.709-2.939.709-4.513v-24.495c0-12.184-9.912-22.096-22.096-22.096h-.495c2.677-4.818 5.553-10.361 7.83-15.651 42.735 9.598 86.366 15.147 130.579 16.582 2.358 6.792 6.392 14.742 10.055 21.333h-.495c-12.184 0-22.096 9.912-22.096 22.097v24.495c0 1.573.252 3.088.709 4.512-23.815 20.18-37.367 49.294-37.367 80.73 0 17.48 4.352 34.81 12.586 50.112 1.354 2.518 3.939 3.947 6.611 3.947 1.2 0 2.417-.288 3.547-.896 3.647-1.963 5.014-6.511 3.051-10.158-7.062-13.126-10.795-27.996-10.795-43.005 0-27.718 12.272-53.338 33.764-70.702.874.162 1.771.257 2.691.257h41.79c.921 0 1.818-.096 2.692-.257 21.492 17.363 33.764 42.984 33.764 70.702 0 37.505-22.51 70.67-57.351 84.51-10.34-4.107-19.759-10.035-27.997-17.617-3.047-2.806-7.792-2.609-10.598.438-2.805 3.047-2.609 7.792.438 10.597 9.608 8.845 20.602 15.757 32.676 20.545 1.767.701 3.624 1.051 5.48 1.051s3.713-.35 5.479-1.051c19.502-7.732 36.142-20.973 48.12-38.289 12.267-17.732 18.751-38.544 18.751-60.184 0-31.437-13.552-60.551-37.366-80.73.457-1.424.709-2.938.709-4.512v-24.495c0-12.185-9.912-22.097-22.097-22.097h-.495c3.663-6.592 7.697-14.541 10.055-21.333 44.213-1.434 87.844-6.984 130.579-16.582 2.277 5.29 5.152 10.832 7.83 15.651h-.496c-12.184 0-22.096 9.912-22.096 22.096v24.495c0 1.579.254 3.098.714 4.525-5.567 4.732-10.65 10.023-15.141 15.803-2.541 3.271-1.949 7.982 1.321 10.524 1.368 1.063 2.988 1.577 4.597 1.577 2.235 0 4.449-.996 5.928-2.898 4.309-5.547 9.246-10.577 14.698-14.988.871.16 1.764.256 2.681.256h41.79c.918 0 1.812-.095 2.684-.256 21.487 17.365 33.771 43.01 33.771 70.699 0 37.522-22.53 70.703-57.301 84.53-34.869-13.828-57.399-47.008-57.399-84.53 0-9.826 1.567-19.509 4.659-28.779 1.311-3.93-.812-8.177-4.741-9.487-3.926-1.309-8.177.813-9.487 4.741-3.604 10.804-5.431 22.083-5.431 33.525 0 21.641 6.484 42.452 18.751 60.185 11.979 17.315 28.617 30.556 48.12 38.29 1.767.7 3.623 1.05 5.479 1.05s3.713-.35 5.479-1.051c19.502-7.733 36.142-20.974 48.12-38.289 12.267-17.732 18.75-38.544 18.75-60.185 0-31.402-13.561-60.543-37.368-80.726.458-1.425.71-2.941.71-4.516v-24.495c0-12.184-9.912-22.096-22.096-22.096h-.495c4.873-8.769 10.408-19.947 11.766-27.59 17.4-5.176 34.628-11.036 51.658-17.589 3.872-1.487 5.799-5.827 4.312-9.693zm-409.474 76.968v24.294h-41.386v-24.294c0-3.912 3.183-7.096 7.096-7.096h27.194c3.913 0 7.096 3.184 7.096 7.096zm-20.693-63.044c4.595 0 8.486 3.06 9.75 7.248-5.618-1.392-11.218-2.86-16.802-4.396 1.833-1.762 4.316-2.852 7.052-2.852zm-.005 33.623c-3.26-5.895-5.872-11.216-7.637-15.375 4.558 1.229 9.128 2.406 13.708 3.541-1.662 3.553-3.734 7.604-6.071 11.834zm195.365 51.686v24.293h-41.386v-24.293c0-3.913 3.183-7.097 7.096-7.097h27.194c3.913.001 7.096 3.184 7.096 7.097zm-20.693-63.045c3.696 0 6.928 1.984 8.713 4.937-2.902.036-5.806.058-8.713.058s-5.811-.022-8.713-.058c1.785-2.952 5.018-4.937 8.713-4.937zm-.006 33.624c-2.829-5.115-5.169-9.798-6.894-13.667 2.299.022 4.598.039 6.9.039 2.303 0 4.604-.017 6.905-.039-1.775 3.959-4.161 8.689-6.911 13.667zm195.365 7.156v24.294h-41.386v-24.294c0-3.912 3.184-7.096 7.096-7.096h27.194c3.913 0 7.096 3.184 7.096 7.096zm-20.692-63.044c2.737 0 5.22 1.09 7.052 2.852-5.584 1.536-11.184 3.004-16.802 4.395 1.264-4.187 5.154-7.247 9.75-7.247zm-.006 33.623c-2.395-4.331-4.441-8.353-6.06-11.834 4.584-1.136 9.158-2.313 13.72-3.543-1.822 4.267-4.501 9.659-7.66 15.377z"/></g></svg>