<svg width="40" height="40" viewBox="0 0 40 40" fill="none" xmlns="http://www.w3.org/2000/svg">
<path d="M6.09724 2.41998H23.9271L28.8798 14.8621H1.14452L6.09724 2.41998Z" fill="#E77373"/>
<path d="M16.0026 2.41998H33.8324L38.7851 14.8621H11.0498L16.0026 2.41998Z" fill="#F4BDBD"/>
<rect x="3.12546" y="15.8192" width="33.6786" height="22.9701" fill="#DCEAC6"/>
<rect x="3.12546" y="15.8192" width="9.90546" height="22.9701" fill="#B9D58D"/>
<rect x="6.09712" y="20.9874" width="3.76407" height="5.26397" fill="#DCEAC6"/>
<rect x="6.09711" y="28.9874" width="3.76407" height="5.26397" fill="#DCEAC6"/>
<rect x="22.792" y="30.6697" width="3.96218" height="7.65669" fill="#B9D58D"/>
<path d="M17.9837 4.81268L15.5073 7.2054L17.4884 12.4694V7.2054L19.9647 4.81268H17.9837Z" fill="#E77373"/>
<path d="M29.8702 4.81268L27.3938 7.2054L29.3749 12.4694V7.2054L31.8513 4.81268H29.8702Z" fill="#E77373"/>
<path d="M22.4411 7.2054L19.9647 5.29123L17.4884 7.68394V13.4265H33.8324V7.2054L31.356 4.81268L28.8796 7.2054V10.0767H26.8986L25.908 8.64103L24.4222 10.0767H22.4411V7.2054Z" fill="#DCEAC6"/>
<rect x="8.87067" y="1.46289" width="3.46691" height="1.91417" fill="#E77373"/>
<rect x="18.7761" y="1.46289" width="3.46691" height="1.91417" fill="#E77373"/>
<rect x="28.3844" y="1.46289" width="3.46691" height="1.91417" fill="#E77373"/>
<path d="M19.73 20.9535H15.7946V26.0879H19.73V20.9535Z" stroke="#333333" stroke-width="0.9739" stroke-miterlimit="10" stroke-linecap="round" stroke-linejoin="round"/>
<path d="M9.83859 20.9535H5.90317V26.0879H9.83859V20.9535Z" stroke="#333333" stroke-width="0.9739" stroke-miterlimit="10" stroke-linecap="round" stroke-linejoin="round"/>
<path d="M12.5416 2.3903V1H8.60873V2.3903" stroke="#333333" stroke-width="0.9739" stroke-miterlimit="10" stroke-linecap="round" stroke-linejoin="round"/>
<path d="M22.3996 2.3903V1H18.4642V2.3903" stroke="#333333" stroke-width="0.9739" stroke-miterlimit="10" stroke-linecap="round" stroke-linejoin="round"/>
<path d="M32.2576 2.3903V1H28.3222V2.3903" stroke="#333333" stroke-width="0.9739" stroke-miterlimit="10" stroke-linecap="round" stroke-linejoin="round"/>
<path d="M9.83859 28.5739H5.90317V33.7083H9.83859V28.5739Z" stroke="#333333" stroke-width="0.9739" stroke-miterlimit="10" stroke-linecap="round" stroke-linejoin="round"/>
<path d="M26.3765 20.9535H22.4411V26.0879H26.3765V20.9535Z" stroke="#333333" stroke-width="0.9739" stroke-miterlimit="10" stroke-linecap="round" stroke-linejoin="round"/>
<path d="M33.0255 20.9535H29.0901V26.0879H33.0255V20.9535Z" stroke="#333333" stroke-width="0.9739" stroke-miterlimit="10" stroke-linecap="round" stroke-linejoin="round"/>
<path d="M19.73 28.8485H15.7946V33.9829H19.73V28.8485Z" stroke="#333333" stroke-width="0.9739" stroke-miterlimit="10" stroke-linecap="round" stroke-linejoin="round"/>
<path d="M26.3765 30.8454H22.4411V39H26.3765V30.8454Z" stroke="#333333" stroke-width="0.9739" stroke-miterlimit="10" stroke-linecap="round" stroke-linejoin="round"/>
<path d="M33.0255 28.8485H29.0901V33.9829H33.0255V28.8485Z" stroke="#333333" stroke-width="0.9739" stroke-miterlimit="10" stroke-linecap="round" stroke-linejoin="round"/>
<path d="M36.9246 15.2625H2.8885V38.9975H36.9246V15.2625Z" stroke="#333333" stroke-width="1.5" stroke-miterlimit="10" stroke-linecap="round" stroke-linejoin="round"/>
<path d="M33.8116 2.7597H6.18842L1 15.2625H39L33.8116 2.7597Z" stroke="#333333" stroke-width="1.5" stroke-miterlimit="10" stroke-linecap="round" stroke-linejoin="round"/>
<path d="M15.6859 2.7597L10.4975 15.2625" stroke="#333333" stroke-width="0.9739" stroke-miterlimit="10" stroke-linecap="round" stroke-linejoin="round"/>
<path d="M12.5598 16.1036V38.9975" stroke="#333333" stroke-width="0.9739" stroke-miterlimit="10" stroke-linecap="round" stroke-linejoin="round"/>
<path d="M22.3606 13.2133H17.6547V7.34005L20.1322 4.84399L22.4333 7.34005V9.92347H24.6046L25.7876 8.78527L26.9706 9.92347H29.1419V7.34005L31.6194 4.84399L33.9204 7.34005V13.2133H29.1782H22.3606Z" stroke="#333333" stroke-width="0.9739" stroke-miterlimit="10" stroke-linecap="round" stroke-linejoin="round"/>
<path d="M31.6194 4.84399H29.6945L27.0069 7.42991" stroke="#333333" stroke-width="0.9739" stroke-miterlimit="10" stroke-linecap="round" stroke-linejoin="round"/>
<path d="M20.1065 4.84399H18.1842L15.494 7.42991" stroke="#333333" stroke-width="0.9739" stroke-miterlimit="10" stroke-linecap="round" stroke-linejoin="round"/>
<path d="M15.494 7.42981L17.655 13.2132" stroke="#333333" stroke-width="0.9739" stroke-miterlimit="10" stroke-linecap="round" stroke-linejoin="round"/>
<path d="M27.0069 7.42981L27.8897 9.78859" stroke="#333333" stroke-width="0.9739" stroke-miterlimit="10" stroke-linecap="round" stroke-linejoin="round"/>
<path d="M14.7571 18.4674H34.0633" stroke="#333333" stroke-width="0.9739" stroke-miterlimit="10" stroke-linecap="round" stroke-linejoin="round"/>
<path d="M22.0208 28.8485H26.7994" stroke="#333333" stroke-width="0.9739" stroke-miterlimit="10" stroke-linecap="round" stroke-linejoin="round"/>
<path d="M5.16365 18.4674H10.5752" stroke="#333333" stroke-width="0.9739" stroke-miterlimit="10" stroke-linecap="round" stroke-linejoin="round"/>
</svg>
